# xmcd CD database file
#
# Track frame offsets:
#	182
#	28527
#	68712
#	95732
#	129155
#	176117
#	195810
#
# Disc length: 3155 seconds
#
# Revision: 0
# Processed by: cddbd v1.5.1PL0 Copyright (c) Steve Scherf et al.
# Submitted via: CDex 1.50
#
DISCID=530c5107
DTITLE=Quintet Claude Sommier - Credo Creole
DYEAR=1991
DGENRE=Jazz
TTITLE0=Ti bolomb pa ti roche
TTITLE1=Le désespoir des singes
TTITLE2=Folitude
TTITLE3=Le roi caillou
TTITLE4=Neige
TTITLE5=Morne Marius
TTITLE6=Le portrait de Dorians
EXTD=YEAR: 1991
EXTT0=
EXTT1=
EXTT2=
EXTT3=
EXTT4=
EXTT5=
EXTT6=
PLAYORDER=
